<svg width="187" height="98" viewBox="0 0 187 98" fill="none" xmlns="http://www.w3.org/2000/svg">
<path d="M34.6214 97.3594C28.2345 97.3594 22.2576 96.561 16.6906 94.9643C11.1668 93.3676 5.79402 90.7135 0.572297 87.0022V65.317H13.1951L15.2665 79.2991C17.5105 80.9821 20.3156 82.3199 23.6817 83.3125C27.0909 84.3051 30.7375 84.8013 34.6214 84.8013C40.3178 84.8013 44.698 83.593 47.762 81.1763C50.826 78.7597 52.358 75.5231 52.358 71.4665C52.358 67.7121 50.9339 64.5833 48.0857 62.0804C45.2806 59.5342 40.2963 57.2902 33.1326 55.3482C22.5597 52.5 14.5976 48.8318 9.2464 44.3437C3.89521 39.8556 1.21962 33.9003 1.21962 26.4777C1.21962 21.4286 2.57899 16.962 5.29774 13.0781C8.05965 9.19419 11.8788 6.1302 16.7553 3.88615C21.6318 1.6421 27.2635 0.498502 33.6504 0.455348C40.6415 0.369038 46.8126 1.27529 52.1638 3.1741C57.5582 5.07291 62.111 7.55431 65.8223 10.6183V30.8795H53.4585L51.1281 17.6741C49.3588 16.4226 47.05 15.3653 44.2018 14.5022C41.3967 13.596 38.0738 13.1428 34.233 13.1428C29.3134 13.1428 25.3 14.3296 22.1928 16.7031C19.0857 19.0335 17.5321 22.2485 17.5321 26.3482C17.5321 29.8869 18.9778 32.7998 21.8692 35.087C24.8037 37.3743 30.047 39.5967 37.5991 41.7545C47.7836 44.4732 55.5083 48.2277 60.7732 53.0179C66.0812 57.7649 68.7352 63.8713 68.7352 71.3371C68.7352 76.6019 67.3111 81.1763 64.4629 85.0603C61.6579 88.9442 57.6876 91.965 52.5522 94.1228C47.46 96.2805 41.483 97.3594 34.6214 97.3594ZM90.9902 96V86.0312L101.283 84.0893V13.7254L90.9902 11.7835V1.74999H117.789L161.03 70.4955L161.419 70.4308V13.7254L149.508 11.7835V1.74999H186.405V11.7835L176.113 13.7254V96H160.642L116.365 27.4487L115.977 27.5134V84.0893L127.887 86.0312V96H90.9902Z" fill="url(#paint0_linear_59_591)"/>
<defs>
<linearGradient id="paint0_linear_59_591" x1="6.12985" y1="0.994321" x2="165.027" y2="94.9243" gradientUnits="userSpaceOnUse">
<stop stop-color="#C6A5FF"/>
<stop offset="1" stop-color="#9485FE"/>
</linearGradient>
</defs>
</svg>
