<svg xmlns="http://www.w3.org/2000/svg" xmlns:xlink="http://www.w3.org/1999/xlink" viewBox="0 0 1920 1080">
  <g id="Web_1920_1" data-name="Web 1920 – 1" clip-path="url(#clip-Web_1920_1)">
    <path id="Text" d="M108.81-38.88c-29.97,0-50.76-22.41-50.76-52.92s20.79-52.92,50.76-52.92c24.3,0,40.5,14.31,45.63,37.26h46.71c-5.67-47.52-41.85-79.92-92.07-79.92-55.35,0-97.2,40.23-97.2,95.58S53.73,3.78,109.08,3.78c50.22,0,86.4-32.4,92.07-79.92H154.44C149.31-53.19,133.11-38.88,108.81-38.88Zm180.63-95.04c-41.31,0-71.01,28.89-71.01,68.31,0,39.96,29.7,69.66,71.01,69.66s71.01-29.7,71.01-69.66C360.45-105.03,330.75-133.92,289.44-133.92Zm.27,100.17c-17.82,0-29.7-14.04-29.7-31.59,0-17.01,11.88-30.78,29.7-30.78,17.55,0,29.43,13.77,29.43,30.78C319.14-47.79,307.26-33.75,289.71-33.75ZM545.13-135c-19.44,0-32.67,5.4-46.44,17.55C488.97-128.79,474.93-135,458.46-135c-14.58,0-23.76,4.32-32.67,11.88v-7.83H382.05V0h43.74V-83.7c6.48-8.37,12.96-11.61,19.71-11.61,14.31,0,23.49,8.91,23.49,27.54V0h43.74V-74.79c0-3.24-.27-6.48-.54-9.72,6.48-7.83,13.23-10.8,19.98-10.8,14.58,0,23.49,8.91,23.49,27.54V0h44.01V-74.79C599.67-112.05,576.45-135,545.13-135Zm105.84-16.47c14.04,0,25.65-10.53,25.65-24.57,0-14.31-11.61-24.84-25.65-24.84-14.31,0-25.65,10.53-25.65,24.84C625.32-162,636.66-151.47,650.97-151.47Zm22.14,20.52H629.37V0h43.74ZM783.54-135c-14.04,0-25.65,4.59-36.18,12.96v-8.91H703.62V0h43.74V-82.08c7.56-8.64,16.2-13.23,24.3-13.23,14.31,0,23.76,8.91,23.76,27.54V0h44.01V-74.79C839.43-112.05,816.75-135,783.54-135Zm220.32,4.05H960.12v5.13a66.65,66.65,0,0,0-35.64-9.72c-35.37,0-65.07,27.27-65.07,67.23,0,35.37,29.7,63.72,65.07,63.72,14.31,0,25.92-3.51,35.64-9.18V-1.35c0,17.82-11.61,27-26.46,27-16.2,0-25.38-7.56-27.54-19.71h-43.2c2.16,34.02,31.05,56.7,70.74,56.7,41.04,0,70.2-23.76,70.2-64.8ZM933.12-39.42c-17.82,0-30.78-14.58-30.78-28.89,0-18.9,12.96-31.59,30.78-31.59a34.29,34.29,0,0,1,27,12.15v36.18A34.29,34.29,0,0,1,933.12-39.42Zm246.24-148.23c-43.2,0-72.9,23.22-72.9,59.94,0,29.16,17.01,46.17,53.19,54l30.24,6.75c15.66,2.97,19.44,9.45,19.44,15.66,0,9.99-8.91,16.2-25.92,16.2-21.6,0-35.64-9.72-38.61-25.92h-45.63c4.32,45.36,41.58,64.8,82.89,64.8,45.9,0,76.14-22.95,76.14-59.67,0-31.59-21.87-45.09-55.35-52.38l-25.65-5.94c-13.77-2.97-21.06-7.29-21.06-17.28,0-11.88,10.53-18.36,26.19-18.36,18.63,0,27.27,9.45,29.7,23.22h45.9C1253.34-176.04,1209.06-187.65,1179.36-187.65Zm168.75,53.73c-41.31,0-71.01,28.89-71.01,68.31,0,39.96,29.7,69.66,71.01,69.66s71.01-29.7,71.01-69.66C1419.12-105.03,1389.42-133.92,1348.11-133.92Zm.27,100.17c-17.82,0-29.7-14.04-29.7-31.59,0-17.01,11.88-30.78,29.7-30.78,17.55,0,29.43,13.77,29.43,30.78C1377.81-47.79,1365.93-33.75,1348.38-33.75Zm159.84-100.17c-41.31,0-71.01,28.89-71.01,68.31,0,39.96,29.7,69.66,71.01,69.66s71.01-29.7,71.01-69.66C1579.23-105.03,1549.53-133.92,1508.22-133.92Zm.27,100.17c-17.82,0-29.7-14.04-29.7-31.59,0-17.01,11.88-30.78,29.7-30.78,17.55,0,29.43,13.77,29.43,30.78C1537.92-47.79,1526.04-33.75,1508.49-33.75ZM1680.75-135c-14.04,0-25.65,4.59-36.18,12.96v-8.91h-43.74V0h43.74V-82.08c7.56-8.64,16.2-13.23,24.3-13.23,14.31,0,23.76,8.91,23.76,27.54V0h44.01V-74.79C1736.64-112.05,1713.96-135,1680.75-135Z" transform="translate(85 532)" fill="#030303" opacity="0.089"/>
  </g>
</svg>
