<svg width="218" height="26" viewBox="0 0 218 26" fill="none" xmlns="http://www.w3.org/2000/svg">
<path d="M26 13.5L3 13.5" stroke="#B3B3B3" stroke-width="3"/>
<path d="M10.5 3L2 13.5L10.5 24" stroke="#B3B3B3" stroke-width="3"/>
<path d="M47 24.5854H55.5142C61.083 24.5854 63.3842 21.8676 63.3842 18.3205C63.3842 14.5893 60.8069 12.5624 58.6438 12.4242V12.1939C60.6688 11.6411 62.4637 10.3052 62.4637 7.26487C62.4637 3.80998 60.1626 1 55.2381 1H47V24.5854ZM49.8534 22.0518V13.8522H55.6523C58.7358 13.8522 60.6688 15.9251 60.6688 18.3205C60.6688 20.3935 59.2421 22.0518 55.5142 22.0518H49.8534ZM49.8534 11.3647V3.53359H55.2381C58.3677 3.53359 59.7483 5.19194 59.7483 7.26487C59.7483 9.7524 57.7233 11.3647 55.1461 11.3647H49.8534Z" fill="#B3B3B3"/>
<path d="M72.9051 25C75.9887 25 77.5995 23.3417 78.1518 22.19H78.2898V24.5854H81.0052V12.9309C81.0052 7.31094 76.725 6.66603 74.4699 6.66603C71.8006 6.66603 68.7631 7.58733 67.3824 10.8119L69.9597 11.7332C70.558 10.4434 71.9732 9.06142 74.562 9.06142C77.0587 9.06142 78.2898 10.3858 78.2898 12.6545V12.7466C78.2898 14.0595 76.9552 13.9443 73.7336 14.3589C70.4544 14.785 66.8761 15.5106 66.8761 19.5643C66.8761 23.0192 69.5455 25 72.9051 25ZM73.3194 22.5585C71.1563 22.5585 69.5915 21.5912 69.5915 19.7025C69.5915 17.6296 71.4784 16.9846 73.5955 16.7083C74.7461 16.5701 77.8296 16.2476 78.2898 15.6948V18.1823C78.2898 20.3935 76.541 22.5585 73.3194 22.5585Z" fill="#B3B3B3"/>
<path d="M93.1408 24.9539C97.0528 24.9539 99.6301 22.5585 100.09 19.4261H97.375C96.8687 21.3608 95.2579 22.5125 93.1408 22.5125C89.9192 22.5125 87.8482 19.8407 87.8482 15.7409C87.8482 11.7332 89.9653 9.10749 93.1408 9.10749C95.534 9.10749 96.9607 10.5816 97.375 12.1939H100.09C99.6301 8.87716 96.8227 6.66603 93.0948 6.66603C88.3084 6.66603 85.1329 10.4434 85.1329 15.833C85.1329 21.1305 88.1704 24.9539 93.1408 24.9539Z" fill="#B3B3B3"/>
<path d="M104.06 24.5854H106.775V17.9635L108.674 16.2015L115.289 24.5854H118.741L110.722 14.4511L118.189 6.89635H114.829L107.097 14.7735H106.775V1H104.06V24.5854Z" fill="#B3B3B3"/>
<path d="M131.164 24.5854H134.018V14.0365H146.582V24.5854H149.435V1H146.582V11.5029H134.018V1H131.164V24.5854Z" fill="#B3B3B3"/>
<path d="M161.959 24.9539C166.746 24.9539 169.967 21.3148 169.967 15.833C169.967 10.3052 166.746 6.66603 161.959 6.66603C157.173 6.66603 153.951 10.3052 153.951 15.833C153.951 21.3148 157.173 24.9539 161.959 24.9539ZM161.959 22.5125C158.324 22.5125 156.667 19.38 156.667 15.833C156.667 12.286 158.324 9.10749 161.959 9.10749C165.595 9.10749 167.252 12.286 167.252 15.833C167.252 19.38 165.595 22.5125 161.959 22.5125Z" fill="#B3B3B3"/>
<path d="M174.112 24.5854H176.828V13.5298C176.828 10.9386 178.715 9.10749 180.832 9.10749C182.891 9.10749 184.329 10.4549 184.329 12.4702V24.5854H187.091V13.0691C187.091 10.7889 188.518 9.10749 191.003 9.10749C192.936 9.10749 194.593 10.1324 194.593 12.7466V24.5854H197.308V12.7466C197.308 8.58925 195.076 6.66603 191.923 6.66603C189.392 6.66603 187.54 7.82917 186.631 9.66027H186.447C185.572 7.77159 184.03 6.66603 181.706 6.66603C179.405 6.66603 177.702 7.77159 176.966 9.66027H176.736V6.89635H174.112V24.5854Z" fill="#B3B3B3"/>
<path d="M209.682 24.9539C213.272 24.9539 215.895 23.1574 216.724 20.4856L214.101 19.7486C213.41 21.5912 211.811 22.5125 209.682 22.5125C206.495 22.5125 204.298 20.4511 204.171 16.6622H217V15.5106C217 8.92322 213.088 6.66603 209.406 6.66603C204.62 6.66603 201.444 10.4434 201.444 15.8791C201.444 21.3148 204.574 24.9539 209.682 24.9539ZM204.171 14.3129C204.355 11.5605 206.3 9.10749 209.406 9.10749C212.352 9.10749 214.239 11.3186 214.239 14.3129H204.171Z" fill="#B3B3B3"/>
<path d="M47 24.5854H55.5142C61.083 24.5854 63.3842 21.8676 63.3842 18.3205C63.3842 14.5893 60.8069 12.5624 58.6438 12.4242V12.1939C60.6688 11.6411 62.4637 10.3052 62.4637 7.26487C62.4637 3.80998 60.1626 1 55.2381 1H47V24.5854ZM49.8534 22.0518V13.8522H55.6523C58.7358 13.8522 60.6688 15.9251 60.6688 18.3205C60.6688 20.3935 59.2421 22.0518 55.5142 22.0518H49.8534ZM49.8534 11.3647V3.53359H55.2381C58.3677 3.53359 59.7483 5.19194 59.7483 7.26487C59.7483 9.7524 57.7233 11.3647 55.1461 11.3647H49.8534Z" stroke="#B3B3B3" stroke-width="0.5"/>
<path d="M72.9051 25C75.9887 25 77.5995 23.3417 78.1518 22.19H78.2898V24.5854H81.0052V12.9309C81.0052 7.31094 76.725 6.66603 74.4699 6.66603C71.8006 6.66603 68.7631 7.58733 67.3824 10.8119L69.9597 11.7332C70.558 10.4434 71.9732 9.06142 74.562 9.06142C77.0587 9.06142 78.2898 10.3858 78.2898 12.6545V12.7466C78.2898 14.0595 76.9552 13.9443 73.7336 14.3589C70.4544 14.785 66.8761 15.5106 66.8761 19.5643C66.8761 23.0192 69.5455 25 72.9051 25ZM73.3194 22.5585C71.1563 22.5585 69.5915 21.5912 69.5915 19.7025C69.5915 17.6296 71.4784 16.9846 73.5955 16.7083C74.7461 16.5701 77.8296 16.2476 78.2898 15.6948V18.1823C78.2898 20.3935 76.541 22.5585 73.3194 22.5585Z" stroke="#B3B3B3" stroke-width="0.5"/>
<path d="M93.1408 24.9539C97.0528 24.9539 99.6301 22.5585 100.09 19.4261H97.375C96.8687 21.3608 95.2579 22.5125 93.1408 22.5125C89.9192 22.5125 87.8482 19.8407 87.8482 15.7409C87.8482 11.7332 89.9653 9.10749 93.1408 9.10749C95.534 9.10749 96.9607 10.5816 97.375 12.1939H100.09C99.6301 8.87716 96.8227 6.66603 93.0948 6.66603C88.3084 6.66603 85.1329 10.4434 85.1329 15.833C85.1329 21.1305 88.1704 24.9539 93.1408 24.9539Z" stroke="#B3B3B3" stroke-width="0.5"/>
<path d="M104.06 24.5854H106.775V17.9635L108.674 16.2015L115.289 24.5854H118.741L110.722 14.4511L118.189 6.89635H114.829L107.097 14.7735H106.775V1H104.06V24.5854Z" stroke="#B3B3B3" stroke-width="0.5"/>
<path d="M131.164 24.5854H134.018V14.0365H146.582V24.5854H149.435V1H146.582V11.5029H134.018V1H131.164V24.5854Z" stroke="#B3B3B3" stroke-width="0.5"/>
<path d="M161.959 24.9539C166.746 24.9539 169.967 21.3148 169.967 15.833C169.967 10.3052 166.746 6.66603 161.959 6.66603C157.173 6.66603 153.951 10.3052 153.951 15.833C153.951 21.3148 157.173 24.9539 161.959 24.9539ZM161.959 22.5125C158.324 22.5125 156.667 19.38 156.667 15.833C156.667 12.286 158.324 9.10749 161.959 9.10749C165.595 9.10749 167.252 12.286 167.252 15.833C167.252 19.38 165.595 22.5125 161.959 22.5125Z" stroke="#B3B3B3" stroke-width="0.5"/>
<path d="M174.112 24.5854H176.828V13.5298C176.828 10.9386 178.715 9.10749 180.832 9.10749C182.891 9.10749 184.329 10.4549 184.329 12.4702V24.5854H187.091V13.0691C187.091 10.7889 188.518 9.10749 191.003 9.10749C192.936 9.10749 194.593 10.1324 194.593 12.7466V24.5854H197.308V12.7466C197.308 8.58925 195.076 6.66603 191.923 6.66603C189.392 6.66603 187.54 7.82917 186.631 9.66027H186.447C185.572 7.77159 184.03 6.66603 181.706 6.66603C179.405 6.66603 177.702 7.77159 176.966 9.66027H176.736V6.89635H174.112V24.5854Z" stroke="#B3B3B3" stroke-width="0.5"/>
<path d="M209.682 24.9539C213.272 24.9539 215.895 23.1574 216.724 20.4856L214.101 19.7486C213.41 21.5912 211.811 22.5125 209.682 22.5125C206.495 22.5125 204.298 20.4511 204.171 16.6622H217V15.5106C217 8.92322 213.088 6.66603 209.406 6.66603C204.62 6.66603 201.444 10.4434 201.444 15.8791C201.444 21.3148 204.574 24.9539 209.682 24.9539ZM204.171 14.3129C204.355 11.5605 206.3 9.10749 209.406 9.10749C212.352 9.10749 214.239 11.3186 214.239 14.3129H204.171Z" stroke="#B3B3B3" stroke-width="0.5"/>
</svg>
