<svg width="381" height="88" viewBox="0 0 381 88" fill="none" xmlns="http://www.w3.org/2000/svg">
<rect width="380.739" height="88" fill="#318CF7" fill-opacity="0.15"/>
<path d="M39.5341 55.2727C46.625 55.2727 50.7273 50.875 50.7273 43.6023C50.7273 36.3636 46.625 32 39.7727 32H32V55.2727H39.5341ZM35.5114 52.2045V35.0682H39.5568C44.6477 35.0682 47.2727 38.1136 47.2727 43.6023C47.2727 49.1136 44.6477 52.2045 39.3409 52.2045H35.5114Z" fill="#318CF7"/>
<path d="M62.1733 55.625C67.0938 55.625 70.3097 52.0227 70.3097 46.625C70.3097 41.1932 67.0938 37.5909 62.1733 37.5909C57.2528 37.5909 54.0369 41.1932 54.0369 46.625C54.0369 52.0227 57.2528 55.625 62.1733 55.625ZM62.1847 52.7727C58.9688 52.7727 57.4688 49.9659 57.4688 46.6136C57.4688 43.2727 58.9688 40.4318 62.1847 40.4318C65.3778 40.4318 66.8778 43.2727 66.8778 46.6136C66.8778 49.9659 65.3778 52.7727 62.1847 52.7727Z" fill="#318CF7"/>
<path d="M77.3551 55.2727H80.8097L84.3551 42.6705H84.6165L88.1619 55.2727H91.6278L96.7528 37.8182H93.2415L89.8438 50.5795H89.6733L86.2642 37.8182H82.7528L79.321 50.6364H79.1506L75.7301 37.8182H72.2188L77.3551 55.2727Z" fill="#318CF7"/>
<path d="M103.375 44.9091C103.375 42.125 105.08 40.5341 107.443 40.5341C109.75 40.5341 111.148 42.0455 111.148 44.5795V55.2727H114.545V44.1705C114.545 39.8523 112.17 37.5909 108.602 37.5909C105.977 37.5909 104.261 38.8068 103.455 40.6591H103.239V37.8182H99.9773V55.2727H103.375V44.9091Z" fill="#318CF7"/>
<path d="M122.5 32H119.102V55.2727H122.5V32Z" fill="#318CF7"/>
<path d="M134.423 55.625C139.344 55.625 142.56 52.0227 142.56 46.625C142.56 41.1932 139.344 37.5909 134.423 37.5909C129.503 37.5909 126.287 41.1932 126.287 46.625C126.287 52.0227 129.503 55.625 134.423 55.625ZM134.435 52.7727C131.219 52.7727 129.719 49.9659 129.719 46.6136C129.719 43.2727 131.219 40.4318 134.435 40.4318C137.628 40.4318 139.128 43.2727 139.128 46.6136C139.128 49.9659 137.628 52.7727 134.435 52.7727Z" fill="#318CF7"/>
<path d="M151.432 55.6591C154.318 55.6591 155.943 54.1932 156.591 52.8864H156.727V55.2727H160.045V43.6818C160.045 38.6023 156.045 37.5909 153.273 37.5909C150.114 37.5909 147.205 38.8636 146.068 42.0455L149.261 42.7727C149.761 41.5341 151.034 40.3409 153.318 40.3409C155.511 40.3409 156.636 41.4886 156.636 43.4659V43.5455C156.636 44.7841 155.364 44.7614 152.227 45.125C148.92 45.5114 145.534 46.375 145.534 50.3409C145.534 53.7727 148.114 55.6591 151.432 55.6591ZM152.17 52.9318C150.25 52.9318 148.864 52.0682 148.864 50.3864C148.864 48.5682 150.477 47.9205 152.443 47.6591C153.545 47.5114 156.159 47.2159 156.648 46.7273V48.9773C156.648 51.0455 155 52.9318 152.17 52.9318Z" fill="#318CF7"/>
<path d="M171.105 55.6136C174.287 55.6136 175.537 53.6705 176.151 52.5568H176.435V55.2727H179.753V32H176.355V40.6477H176.151C175.537 39.5682 174.378 37.5909 171.128 37.5909C166.912 37.5909 163.81 40.9205 163.81 46.5795C163.81 52.2273 166.866 55.6136 171.105 55.6136ZM171.855 52.7159C168.821 52.7159 167.241 50.0455 167.241 46.5455C167.241 43.0795 168.787 40.4773 171.855 40.4773C174.821 40.4773 176.412 42.8977 176.412 46.5455C176.412 50.2159 174.787 52.7159 171.855 52.7159Z" fill="#318CF7"/>
<path d="M193.344 55.2727H196.855V46.4659H201.628C201.707 46.4659 201.776 46.4659 201.855 46.4659L206.582 55.2727H210.582L205.423 45.8523C208.276 44.7955 209.696 42.4205 209.696 39.2955C209.696 35.0114 207.037 32 201.639 32H193.344V55.2727ZM196.855 43.4432V35.0114H201.264C204.73 35.0114 206.162 36.6591 206.162 39.2955C206.162 41.9205 204.73 43.4432 201.31 43.4432H196.855Z" fill="#318CF7"/>
<path d="M221 55.625C224.807 55.625 227.5 53.75 228.273 50.9091L225.057 50.3295C224.443 51.9773 222.966 52.8182 221.034 52.8182C218.125 52.8182 216.17 50.9318 216.08 47.5682H228.489V46.3636C228.489 40.0568 224.716 37.5909 220.761 37.5909C215.898 37.5909 212.693 41.2955 212.693 46.6591C212.693 52.0795 215.852 55.625 221 55.625ZM216.091 45.0227C216.227 42.5455 218.023 40.3977 220.784 40.3977C223.42 40.3977 225.148 42.3523 225.159 45.0227H216.091Z" fill="#318CF7"/>
<path d="M245.338 42.0795C244.634 39.3636 242.509 37.5909 238.736 37.5909C234.793 37.5909 231.997 39.6705 231.997 42.7614C231.997 45.2386 233.497 46.8864 236.77 47.6136L239.724 48.2614C241.406 48.6364 242.19 49.3864 242.19 50.4773C242.19 51.8295 240.747 52.8864 238.52 52.8864C236.486 52.8864 235.179 52.0114 234.77 50.2955L231.486 50.7955C232.054 53.8864 234.622 55.625 238.543 55.625C242.759 55.625 245.679 53.3864 245.679 50.2273C245.679 47.7614 244.111 46.2386 240.906 45.5L238.134 44.8636C236.213 44.4091 235.384 43.7614 235.395 42.5795C235.384 41.2386 236.838 40.2841 238.77 40.2841C240.884 40.2841 241.861 41.4545 242.259 42.625L245.338 42.0795Z" fill="#318CF7"/>
<path d="M260.472 48.0341C260.483 51 258.278 52.4091 256.369 52.4091C254.267 52.4091 252.812 50.8864 252.812 48.5114V37.8182H249.415V48.9205C249.415 53.25 251.79 55.5 255.142 55.5C257.767 55.5 259.551 54.1136 260.358 52.25H260.54V55.2727H263.881V37.8182H260.472V48.0341Z" fill="#318CF7"/>
<path d="M268.446 55.2727H271.844V44.5114C271.844 42.1591 273.491 40.5227 275.423 40.5227C277.31 40.5227 278.616 41.7727 278.616 43.6705V55.2727H282.003V44.1477C282.003 42.0455 283.287 40.5227 285.503 40.5227C287.298 40.5227 288.776 41.5227 288.776 43.8864V55.2727H292.173V43.5682C292.173 39.5795 289.946 37.5909 286.787 37.5909C284.276 37.5909 282.389 38.7955 281.548 40.6591H281.366C280.605 38.75 279.003 37.5909 276.673 37.5909C274.366 37.5909 272.651 38.7386 271.923 40.6591H271.707V37.8182H268.446V55.2727Z" fill="#318CF7"/>
<path d="M304.25 55.625C308.057 55.625 310.75 53.75 311.523 50.9091L308.307 50.3295C307.693 51.9773 306.216 52.8182 304.284 52.8182C301.375 52.8182 299.42 50.9318 299.33 47.5682H311.739V46.3636C311.739 40.0568 307.966 37.5909 304.011 37.5909C299.148 37.5909 295.943 41.2955 295.943 46.6591C295.943 52.0795 299.102 55.625 304.25 55.625ZM299.341 45.0227C299.477 42.5455 301.273 40.3977 304.034 40.3977C306.67 40.3977 308.398 42.3523 308.409 45.0227H299.341Z" fill="#318CF7"/>
<path d="M338.239 32L338.239 55" stroke="#318CF7" stroke-width="3"/>
<path d="M327.739 47.5L338.239 56L348.739 47.5" stroke="#318CF7" stroke-width="3"/>
</svg>
