<svg width="161" height="61" viewBox="0 0 161 61" fill="none" xmlns="http://www.w3.org/2000/svg">
<rect width="159.714" height="61" transform="translate(0.714355)" fill="#F25C96" fill-opacity="0.15"/>
<path d="M35.9176 39H42.608C46.6648 39 48.4972 36.9801 48.4972 34.304C48.4972 31.6023 46.6051 30.0767 44.875 29.983V29.8125C46.4773 29.4034 47.8153 28.3125 47.8153 26.1307C47.8153 23.5483 46.0256 21.5455 42.3097 21.5455H35.9176V39ZM38.5511 36.7415V31.1506H42.446C44.5597 31.1506 45.8807 32.5142 45.8807 34.1761C45.8807 35.642 44.8835 36.7415 42.3523 36.7415H38.5511ZM38.5511 29.0966V23.7869H42.1477C44.2358 23.7869 45.233 24.8864 45.233 26.3352C45.233 28.0227 43.8523 29.0966 42.0795 29.0966H38.5511ZM53.9645 21.5455H51.4162V39H53.9645V21.5455ZM62.907 39.2642C66.5973 39.2642 69.0092 36.5625 69.0092 32.5142C69.0092 28.4403 66.5973 25.7386 62.907 25.7386C59.2166 25.7386 56.8047 28.4403 56.8047 32.5142C56.8047 36.5625 59.2166 39.2642 62.907 39.2642ZM62.9155 37.125C60.5036 37.125 59.3786 35.0199 59.3786 32.5057C59.3786 30 60.5036 27.8693 62.9155 27.8693C65.3104 27.8693 66.4354 30 66.4354 32.5057C66.4354 35.0199 65.3104 37.125 62.9155 37.125ZM77.3423 44.1818C80.6747 44.1818 83.2486 42.6562 83.2486 39.2898V25.9091H80.7514V28.0312H80.5639C80.1122 27.2216 79.2088 25.7386 76.7713 25.7386C73.6094 25.7386 71.2827 28.2358 71.2827 32.4034C71.2827 36.5795 73.6605 38.804 76.7543 38.804C79.1577 38.804 80.0866 37.4489 80.5469 36.6136H80.7088V39.1875C80.7088 41.2415 79.3026 42.1278 77.3679 42.1278C75.2457 42.1278 74.419 41.0625 73.9673 40.3125L71.777 41.2159C72.4673 42.8182 74.2145 44.1818 77.3423 44.1818ZM77.3168 36.6903C75.0412 36.6903 73.8565 34.9432 73.8565 32.3693C73.8565 29.8551 75.0156 27.9034 77.3168 27.9034C79.5412 27.9034 80.7344 29.7188 80.7344 32.3693C80.7344 35.071 79.5156 36.6903 77.3168 36.6903ZM96.4759 29.1051C95.9474 27.0682 94.3537 25.7386 91.5241 25.7386C88.5668 25.7386 86.4702 27.2983 86.4702 29.6165C86.4702 31.4744 87.5952 32.7102 90.0497 33.2557L92.2656 33.7415C93.527 34.0227 94.1151 34.5852 94.1151 35.4034C94.1151 36.4176 93.0327 37.2102 91.3622 37.2102C89.8366 37.2102 88.8565 36.554 88.5497 35.267L86.0866 35.642C86.5128 37.9602 88.4389 39.2642 91.3793 39.2642C94.5412 39.2642 96.7315 37.5852 96.7315 35.2159C96.7315 33.3665 95.5554 32.2244 93.152 31.6705L91.0724 31.1932C89.6321 30.8523 89.0099 30.3665 89.0185 29.4801C89.0099 28.4744 90.1009 27.7585 91.5497 27.7585C93.1349 27.7585 93.8679 28.6364 94.1662 29.5142L96.4759 29.1051Z" fill="#F25C96"/>
<path d="M114.714 30.5L127.857 30.5" stroke="#F25C96" stroke-width="2.5"/>
<path d="M123.572 36.5L128.429 30.5L123.572 24.5" stroke="#F25C96" stroke-width="2.5"/>
</svg>
