<svg width="198" height="61" viewBox="0 0 198 61" fill="none" xmlns="http://www.w3.org/2000/svg">
<rect width="197.714" height="61" fill="#318CF7" fill-opacity="0.15"/>
<path d="M34.9176 21.5455V39H37.4233V26.3608H37.5852L42.7329 38.9744H44.8125L49.9602 26.3693H50.1221V39H52.6278V21.5455H49.4318L43.875 35.1136H43.6704L38.1136 21.5455H34.9176Z" fill="#318CF7"/>
<path d="M57.8629 43.9091C59.968 43.9091 61.2976 42.8097 62.0561 40.7472L67.468 25.9347L64.7152 25.9091L61.3998 36.0682H61.2635L57.9481 25.9091H55.2209L60.0106 39.1705L59.6953 40.0398C59.0476 41.7784 58.1356 41.9233 56.7379 41.5398L56.1243 43.6278C56.4311 43.7642 57.0959 43.9091 57.8629 43.9091Z" fill="#318CF7"/>
<path d="M79.843 39H82.5021L86.1754 25.9261H86.3118L89.9851 39H92.6356L97.4851 21.5455H94.7067L91.3146 35.071H91.1527L87.6158 21.5455H84.8714L81.3345 35.0625H81.1726L77.772 21.5455H75.0021L79.843 39Z" fill="#318CF7"/>
<path d="M103.907 39.2642C107.597 39.2642 110.009 36.5625 110.009 32.5142C110.009 28.4403 107.597 25.7386 103.907 25.7386C100.217 25.7386 97.8047 28.4403 97.8047 32.5142C97.8047 36.5625 100.217 39.2642 103.907 39.2642ZM103.915 37.125C101.504 37.125 100.379 35.0199 100.379 32.5057C100.379 30 101.504 27.8693 103.915 27.8693C106.31 27.8693 107.435 30 107.435 32.5057C107.435 35.0199 106.31 37.125 103.915 37.125Z" fill="#318CF7"/>
<path d="M112.854 39H115.402V31.0057C115.402 29.2926 116.723 28.0568 118.53 28.0568C119.058 28.0568 119.655 28.1506 119.859 28.2102V25.7727C119.604 25.7386 119.101 25.7131 118.777 25.7131C117.243 25.7131 115.93 26.5824 115.453 27.9886H115.317V25.9091H112.854V39Z" fill="#318CF7"/>
<path d="M122.065 39H124.613V34.3551L125.883 33.0852L130.332 39H133.46L127.8 31.5256L133.102 25.9091H130.05L124.835 31.4489H124.613V21.5455H122.065V39Z" fill="#318CF7"/>
<path d="M152 30.5L165.143 30.5" stroke="#318CF7" stroke-width="2.5"/>
<path d="M160.857 36.5L165.714 30.5L160.857 24.5" stroke="#318CF7" stroke-width="2.5"/>
</svg>
